<svg xmlns="http://www.w3.org/2000/svg" width="500" height="500" viewBox="0 0 500 500" version="1.1"><path d="M 263.500 169 C 263.101 169.646, 263.224 170.624, 263.774 171.174 C 264.441 171.841, 265.016 171.783, 265.500 171 C 265.899 170.354, 265.776 169.376, 265.226 168.826 C 264.559 168.159, 263.984 168.217, 263.500 169 M 252.150 171.027 C 251.932 174.706, 249.370 177.833, 245.705 178.893 C 243.577 179.508, 243.172 179.861, 244.500 179.942 C 247.588 180.130, 250.054 182.487, 251.549 186.678 C 252.687 189.869, 252.919 190.083, 252.956 187.973 C 253.019 184.360, 255.581 181.181, 259.295 180.107 C 262.254 179.252, 262.302 179.173, 259.924 179.090 C 256.675 178.976, 253.290 175.405, 252.730 171.500 C 252.353 168.870, 252.281 168.811, 252.150 171.027 M 306.451 177.453 C 305.036 178.176, 304.572 179.133, 304.951 180.547 C 305.407 182.246, 305.848 182.416, 307.549 181.547 C 308.964 180.824, 309.428 179.867, 309.049 178.453 C 308.593 176.754, 308.152 176.584, 306.451 177.453 M 269.117 186.184 C 268.200 187.653, 268.224 188.482, 269.225 189.910 C 270.461 191.675, 270.574 191.664, 272.067 189.624 C 273.480 187.694, 273.470 187.354, 271.959 185.898 C 270.431 184.427, 270.200 184.450, 269.117 186.184 M 286.634 210.003 C 283.163 217.049, 283.146 217.146, 285.063 219.063 C 286.207 220.207, 287 222.369, 287 224.345 C 287 226.420, 287.759 228.377, 289 229.500 C 292.892 233.022, 291.130 239.463, 283.891 248.176 C 281.581 250.956, 280.241 253.463, 280.585 254.360 C 281.401 256.487, 273.863 264.365, 267.624 267.905 C 248.961 278.496, 232.160 274.995, 223.894 258.792 C 222.788 256.624, 222.064 254.322, 222.286 253.675 C 222.507 253.029, 223.849 254.779, 225.267 257.563 C 228.366 263.651, 234.357 269.303, 239.514 271.005 C 245.787 273.075, 255.077 271.760, 263.465 267.615 C 272.201 263.297, 279.349 256.676, 278.424 253.759 C 277.993 252.403, 278.707 250.830, 280.742 248.650 C 284.721 244.388, 287.473 240.152, 288.790 236.264 C 289.701 233.575, 289.600 232.745, 288.193 231.350 C 287.262 230.426, 286.050 227.620, 285.499 225.114 C 283.892 217.801, 282.681 217.650, 264.274 222.472 C 246.426 227.147, 242.694 228.834, 231.667 237.215 C 224.358 242.769, 220.659 244.284, 224.240 240.256 C 225.665 238.654, 225.544 237.711, 222.862 229.500 C 219.075 217.905, 216.252 214.851, 208.743 214.229 C 189.472 212.630, 182.068 238.746, 200.248 244.192 C 203.406 245.139, 205.054 245.033, 209.627 243.591 C 216.166 241.530, 217.828 242.161, 212.523 244.690 C 209.072 246.336, 208.835 246.723, 209.294 249.983 C 211.039 262.379, 220.784 275.366, 232.227 280.545 C 237.152 282.774, 240.004 283.392, 245.500 283.421 C 257.244 283.483, 266.342 279.170, 281.500 266.356 C 291.261 258.105, 294.311 253.204, 296.431 242.364 C 297.385 237.489, 298.742 232.150, 299.447 230.500 C 300.302 228.500, 300.429 226.690, 299.830 225.070 C 299.336 223.734, 299.222 220.702, 299.577 218.332 C 299.933 215.963, 299.945 213.298, 299.604 212.411 C 299.075 211.032, 298.700 211.139, 297.026 213.149 C 295.067 215.500, 295.067 215.500, 294.934 212 C 294.520 201.114, 291.385 200.360, 286.634 210.003 M 203 232 C 203 233.506, 203.522 234.046, 204.750 233.810 C 205.713 233.624, 206.500 232.810, 206.500 232 C 206.500 231.190, 205.713 230.376, 204.750 230.190 C 203.522 229.954, 203 230.494, 203 232 M 188.479 244.047 C 187.394 246.453, 184.855 249.416, 182.317 251.239 C 179.943 252.944, 178 254.713, 178 255.170 C 178 258.086, 190.395 253.756, 196.444 248.726 C 199.389 246.278, 199.389 246.278, 196.944 245.014 C 195.600 244.319, 193.560 242.896, 192.412 241.853 C 190.336 239.967, 190.313 239.979, 188.479 244.047 M 333 271.500 C 333 272.325, 333.675 273, 334.500 273 C 335.325 273, 336 272.325, 336 271.500 C 336 270.675, 335.325 270, 334.500 270 C 333.675 270, 333 270.675, 333 271.500 M 271.975 276.530 C 270.917 277.805, 271.216 278.773, 273.759 282.313 C 278.524 288.948, 278.445 289.898, 272.504 297.550 C 270.031 300.735, 268.197 303.531, 268.430 303.763 C 268.663 303.996, 271.938 302.565, 275.708 300.584 C 283.292 296.599, 293.474 287.814, 291 287.390 C 290.175 287.249, 287.827 286.861, 285.783 286.527 C 282.696 286.024, 281.423 284.997, 278.283 280.473 C 276.202 277.476, 274.218 275.018, 273.872 275.012 C 273.527 275.005, 272.673 275.689, 271.975 276.530 M 324.838 282.100 C 325.139 285.251, 324.709 286.372, 322.351 288.594 C 320.156 290.660, 320.003 291.016, 321.684 290.139 C 324.641 288.597, 328.135 288.706, 330.577 290.417 C 332.488 291.754, 332.600 291.646, 332.600 288.466 C 332.600 286.615, 333.364 284.255, 334.298 283.223 C 335.928 281.422, 335.873 281.365, 332.914 281.799 C 330.852 282.102, 328.945 281.596, 327.153 280.271 C 324.475 278.291, 324.475 278.291, 324.838 282.100 M 266.066 279.938 C 264.877 280.691, 265.111 281.569, 267.441 285.090 C 271.245 290.838, 271.015 293.175, 266.125 298.480 C 263.856 300.942, 262 303.216, 262 303.534 C 262 305.230, 268.055 300.109, 271.727 295.309 C 276.369 289.239, 276.361 289.027, 271.225 282.250 C 268.556 278.727, 268.218 278.576, 266.066 279.938 M 346.361 282.537 C 346.272 284.013, 346.893 285, 348.111 285.319 C 349.302 285.630, 350 285.293, 350 284.406 C 350 283.633, 350.033 282.685, 350.074 282.300 C 350.115 281.914, 349.327 281.295, 348.324 280.924 C 346.911 280.402, 346.469 280.766, 346.361 282.537 M 200.691 300.240 C 198.261 302.837, 197.383 303.164, 194.191 302.665 C 191.175 302.192, 190.866 302.284, 192.500 303.168 C 195.647 304.869, 197 307.116, 197 310.646 C 197 313.909, 197 313.909, 199.455 311.455 C 201.010 309.899, 203.116 308.971, 205.205 308.921 C 207.017 308.878, 207.928 308.612, 207.229 308.331 C 205.128 307.485, 202.790 301.973, 203.438 299.392 C 204.162 296.504, 204.195 296.494, 200.691 300.240 M 214 301.500 C 214 302.417, 214.484 303.005, 215.075 302.808 C 215.666 302.611, 216.150 302.022, 216.150 301.500 C 216.150 300.978, 215.666 300.389, 215.075 300.192 C 214.484 299.995, 214 300.583, 214 301.500 M 213.286 318.353 C 211.558 319.282, 211.376 319.796, 212.327 321.060 C 213.034 321.999, 214.314 322.397, 215.547 322.060 C 217.276 321.587, 217.425 321.167, 216.506 319.353 C 215.581 317.527, 215.099 317.377, 213.286 318.353 M 247.870 329.020 C 246.362 330.630, 246.368 330.870, 247.951 332.226 C 249.466 333.523, 249.925 333.479, 251.942 331.846 C 253.196 330.831, 253.659 330, 252.971 330 C 252.283 330, 251.221 329.388, 250.610 328.640 C 249.687 327.508, 249.226 327.572, 247.870 329.020" stroke="none" fill="#e0d7dc" fill-rule="evenodd"/><path d="M 229.105 145.546 C 195.458 152.845, 167.943 174.537, 153.559 205.105 C 151.645 209.172, 148.849 216.550, 147.345 221.500 C 144.767 229.985, 144.611 231.615, 144.611 250 C 144.611 268.286, 144.779 270.060, 147.307 278.500 C 158.130 314.630, 185.115 341.600, 221.500 352.655 C 229.985 355.233, 231.615 355.389, 250 355.389 C 268.402 355.389, 270.007 355.235, 278.500 352.648 C 308.536 343.499, 332.461 323.461, 345.603 296.446 C 349.995 287.418, 350.406 285, 347.547 285 C 346.767 285, 346.272 284.010, 346.356 282.620 C 346.481 280.561, 346.812 280.359, 348.815 281.120 C 350.088 281.604, 351.277 282, 351.457 282 C 351.637 282, 352.621 278.738, 353.642 274.750 C 355.142 268.898, 355.486 263.933, 355.428 249 C 355.362 231.926, 355.149 229.806, 352.664 221.500 C 340.882 182.110, 310.279 153.736, 270.792 145.590 C 261.192 143.610, 238.144 143.586, 229.105 145.546 M 263.500 169 C 263.101 169.646, 263.224 170.624, 263.774 171.174 C 264.441 171.841, 265.016 171.783, 265.500 171 C 265.899 170.354, 265.776 169.376, 265.226 168.826 C 264.559 168.159, 263.984 168.217, 263.500 169 M 252.150 171.027 C 251.932 174.706, 249.370 177.833, 245.705 178.893 C 243.577 179.508, 243.172 179.861, 244.500 179.942 C 247.588 180.130, 250.054 182.487, 251.549 186.678 C 252.687 189.869, 252.919 190.083, 252.956 187.973 C 253.019 184.360, 255.581 181.181, 259.295 180.107 C 262.254 179.252, 262.302 179.173, 259.924 179.090 C 256.675 178.976, 253.290 175.405, 252.730 171.500 C 252.353 168.870, 252.281 168.811, 252.150 171.027 M 306.451 177.453 C 305.036 178.176, 304.572 179.133, 304.951 180.547 C 305.407 182.246, 305.848 182.416, 307.549 181.547 C 308.964 180.824, 309.428 179.867, 309.049 178.453 C 308.593 176.754, 308.152 176.584, 306.451 177.453 M 269.117 186.184 C 268.200 187.653, 268.224 188.482, 269.225 189.910 C 270.461 191.675, 270.574 191.664, 272.067 189.624 C 273.480 187.694, 273.470 187.354, 271.959 185.898 C 270.431 184.427, 270.200 184.450, 269.117 186.184 M 286.634 210.003 C 283.163 217.049, 283.146 217.146, 285.063 219.063 C 286.207 220.207, 287 222.369, 287 224.345 C 287 226.420, 287.759 228.377, 289 229.500 C 292.892 233.022, 291.130 239.463, 283.891 248.176 C 281.581 250.956, 280.241 253.463, 280.585 254.360 C 281.401 256.487, 273.863 264.365, 267.624 267.905 C 248.961 278.496, 232.160 274.995, 223.894 258.792 C 222.788 256.624, 222.064 254.322, 222.286 253.675 C 222.507 253.029, 223.849 254.779, 225.267 257.563 C 228.366 263.651, 234.357 269.303, 239.514 271.005 C 245.787 273.075, 255.077 271.760, 263.465 267.615 C 272.201 263.297, 279.349 256.676, 278.424 253.759 C 277.993 252.403, 278.707 250.830, 280.742 248.650 C 284.721 244.388, 287.473 240.152, 288.790 236.264 C 289.701 233.575, 289.600 232.745, 288.193 231.350 C 287.262 230.426, 286.050 227.620, 285.499 225.114 C 283.892 217.801, 282.681 217.650, 264.274 222.472 C 246.426 227.147, 242.694 228.834, 231.667 237.215 C 224.358 242.769, 220.659 244.284, 224.240 240.256 C 225.665 238.654, 225.544 237.711, 222.862 229.500 C 219.075 217.905, 216.252 214.851, 208.743 214.229 C 189.472 212.630, 182.068 238.746, 200.248 244.192 C 203.406 245.139, 205.054 245.033, 209.627 243.591 C 216.166 241.530, 217.828 242.161, 212.523 244.690 C 209.072 246.336, 208.835 246.723, 209.294 249.983 C 211.039 262.379, 220.784 275.366, 232.227 280.545 C 237.152 282.774, 240.004 283.392, 245.500 283.421 C 257.244 283.483, 266.342 279.170, 281.500 266.356 C 291.261 258.105, 294.311 253.204, 296.431 242.364 C 297.385 237.489, 298.742 232.150, 299.447 230.500 C 300.302 228.500, 300.429 226.690, 299.830 225.070 C 299.336 223.734, 299.222 220.702, 299.577 218.332 C 299.933 215.963, 299.945 213.298, 299.604 212.411 C 299.075 211.032, 298.700 211.139, 297.026 213.149 C 295.067 215.500, 295.067 215.500, 294.934 212 C 294.520 201.114, 291.385 200.360, 286.634 210.003 M 203 232 C 203 233.506, 203.522 234.046, 204.750 233.810 C 205.713 233.624, 206.500 232.810, 206.500 232 C 206.500 231.190, 205.713 230.376, 204.750 230.190 C 203.522 229.954, 203 230.494, 203 232 M 188.479 244.047 C 187.394 246.453, 184.855 249.416, 182.317 251.239 C 179.943 252.944, 178 254.713, 178 255.170 C 178 258.086, 190.395 253.756, 196.444 248.726 C 199.389 246.278, 199.389 246.278, 196.944 245.014 C 195.600 244.319, 193.560 242.896, 192.412 241.853 C 190.336 239.967, 190.313 239.979, 188.479 244.047 M 333 271.500 C 333 272.325, 333.675 273, 334.500 273 C 335.325 273, 336 272.325, 336 271.500 C 336 270.675, 335.325 270, 334.500 270 C 333.675 270, 333 270.675, 333 271.500 M 271.975 276.530 C 270.917 277.805, 271.216 278.773, 273.759 282.313 C 278.524 288.948, 278.445 289.898, 272.504 297.550 C 270.031 300.735, 268.197 303.531, 268.430 303.763 C 268.663 303.996, 271.938 302.565, 275.708 300.584 C 283.292 296.599, 293.474 287.814, 291 287.390 C 290.175 287.249, 287.827 286.861, 285.783 286.527 C 282.696 286.024, 281.423 284.997, 278.283 280.473 C 276.202 277.476, 274.218 275.018, 273.872 275.012 C 273.527 275.005, 272.673 275.689, 271.975 276.530 M 324.838 282.100 C 325.139 285.251, 324.709 286.372, 322.351 288.594 C 320.156 290.660, 320.003 291.016, 321.684 290.139 C 324.641 288.597, 328.135 288.706, 330.577 290.417 C 332.488 291.754, 332.600 291.646, 332.600 288.466 C 332.600 286.615, 333.364 284.255, 334.298 283.223 C 335.928 281.422, 335.873 281.365, 332.914 281.799 C 330.852 282.102, 328.945 281.596, 327.153 280.271 C 324.475 278.291, 324.475 278.291, 324.838 282.100 M 266.066 279.938 C 264.877 280.691, 265.111 281.569, 267.441 285.090 C 271.245 290.838, 271.015 293.175, 266.125 298.480 C 263.856 300.942, 262 303.216, 262 303.534 C 262 305.230, 268.055 300.109, 271.727 295.309 C 276.369 289.239, 276.361 289.027, 271.225 282.250 C 268.556 278.727, 268.218 278.576, 266.066 279.938 M 200.691 300.240 C 198.261 302.837, 197.383 303.164, 194.191 302.665 C 191.175 302.192, 190.866 302.284, 192.500 303.168 C 195.647 304.869, 197 307.116, 197 310.646 C 197 313.909, 197 313.909, 199.455 311.455 C 201.010 309.899, 203.116 308.971, 205.205 308.921 C 207.017 308.878, 207.928 308.612, 207.229 308.331 C 205.128 307.485, 202.790 301.973, 203.438 299.392 C 204.162 296.504, 204.195 296.494, 200.691 300.240 M 214 301.500 C 214 302.417, 214.484 303.005, 215.075 302.808 C 215.666 302.611, 216.150 302.022, 216.150 301.500 C 216.150 300.978, 215.666 300.389, 215.075 300.192 C 214.484 299.995, 214 300.583, 214 301.500 M 213.286 318.353 C 211.558 319.282, 211.376 319.796, 212.327 321.060 C 213.034 321.999, 214.314 322.397, 215.547 322.060 C 217.276 321.587, 217.425 321.167, 216.506 319.353 C 215.581 317.527, 215.099 317.377, 213.286 318.353 M 247.870 329.020 C 246.362 330.630, 246.368 330.870, 247.951 332.226 C 249.466 333.523, 249.925 333.479, 251.942 331.846 C 253.196 330.831, 253.659 330, 252.971 330 C 252.283 330, 251.221 329.388, 250.610 328.640 C 249.687 327.508, 249.226 327.572, 247.870 329.020" stroke="none" fill="#4414f3" fill-rule="evenodd"/></svg>